<svg width="758px" height="432px" xmlns="http://www.w3.org/2000/svg" xmlns:xlink="http://www.w3.org/1999/xlink">
<g style="">  <path d="M95.000000,412.000000 C95.500000,411.500000,127.000000,375.000000,191.000000,364.000000 C255.000000,353.000000,257.000000,403.000000,257.000000,403.000000 C257.000000,403.000000,282.000000,343.000000,335.000000,339.000000 C388.000000,335.000000,393.000000,385.000000,393.000000,385.000000 C393.000000,385.000000,413.000000,340.000000,453.000000,337.000000 C493.000000,334.000000,503.500000,362.500000,503.000000,363.000000 C502.500000,363.500000,530.000000,321.000000,560.000000,323.000000 C590.000000,325.000000,599.000000,338.000000,599.000000,338.000000 C599.000000,338.000000,628.000000,318.000000,649.000000,316.000000 C670.000000,314.000000,706.500000,319.500000,706.000000,319.000000 C705.500000,318.500000,698.000000,285.000000,703.000000,267.000000 C708.000000,249.000000,747.500000,229.000000,747.000000,229.000000 C746.500000,229.000000,705.000000,215.000000,703.000000,184.000000 C701.000000,153.000000,743.000000,129.500000,743.000000,129.000000 C743.000000,128.500000,721.000000,131.000000,692.000000,117.000000 C663.000000,103.000000,668.000000,77.000000,668.000000,77.000000 C668.000000,77.000000,659.000000,84.000000,597.000000,88.000000 C535.000000,92.000000,556.500000,45.500000,557.000000,45.000000 C557.500000,44.500000,549.000000,65.000000,461.000000,83.000000 C373.000000,101.000000,373.000000,47.000000,373.000000,47.000000 C373.000000,47.000000,358.000000,89.000000,299.000000,101.000000 C240.000000,113.000000,223.000000,67.000000,223.000000,67.000000 C223.000000,67.000000,227.000000,106.000000,171.000000,115.000000 C115.000000,124.000000,95.000000,88.500000,95.000000,88.000000 C95.000000,87.500000,109.000000,125.000000,98.000000,137.000000 C87.000000,149.000000,55.000000,141.000000,55.000000,141.000000 C55.000000,141.000000,79.000000,171.000000,69.000000,199.000000 C59.000000,227.000000,32.000000,229.000000,32.000000,229.000000 C32.000000,229.000000,71.000000,245.000000,69.000000,271.000000 C67.000000,297.000000,30.000000,327.000000,30.000000,327.000000 C30.000000,327.000000,94.000000,309.000000,107.000000,327.000000 C120.000000,345.000000,95.000000,412.000000,95.000000,412.000000 Z " style="fill: rgba(128, 255, 8, 1.000000); stroke-width: 5.000000px; stroke: rgba(64, 128, 2, 1.000000); " fill="#8df900" stroke="#4e8f00" stroke-width="5.000000" />
</g><g style="">  <path d="M163.000000,244.000000 C147.000000,208.000000,213.000000,175.000000,236.000000,203.000000 C251.365410,221.705721,235.000000,250.000000,235.000000,250.000000 L224.000000,234.000000 L188.000000,248.000000 C188.000000,248.000000,194.500000,267.000000,194.000000,266.000000 C194.000000,266.000000,179.000000,280.000000,163.000000,244.000000 Z M232.000000,319.000000 L267.000000,294.000000 L257.000000,277.000000 C257.000000,277.000000,307.317181,201.309570,261.000000,158.000000 C184.000000,86.000000,77.399384,210.641121,115.000000,271.000000 C153.000000,332.000000,218.000000,304.000000,218.000000,304.000000 Z " style="fill: rgba(253, 128, 8, 1.000000); stroke-width: 0.000000px; stroke: rgba(0, 0, 0, 1.000000); " fill="#ff9300" stroke="#000000" stroke-width="0.000000" />
</g><g style="">  <path d="M313.000000,164.000000 C313.000000,164.000000,358.000000,165.000000,358.000000,165.000000 C358.000000,165.000000,337.000000,242.000000,372.000000,242.000000 C407.000000,242.000000,399.000000,170.500000,399.000000,170.000000 C399.000000,169.500000,432.000000,168.000000,432.000000,168.000000 C432.000000,168.000000,442.000000,285.000000,362.000000,290.000000 C282.000000,295.000000,313.000000,164.000000,313.000000,164.000000 Z " style="fill: rgba(128, 0, 255, 1.000000); stroke-width: 0.000000px; stroke: rgba(0, 0, 0, 1.000000); " fill="#9437ff" stroke="#000000" stroke-width="0.000000" />
</g><g style="">  <path d="M462.500000,185.000000 C463.000000,184.500000,504.000000,177.500000,504.500000,177.000000 C505.000000,176.500000,501.000000,281.500000,500.500000,281.000000 C500.000000,280.500000,458.500000,289.000000,458.500000,289.000000 L462.500000,185.000000 Z " style="fill: rgba(253, 128, 8, 1.000000); stroke-width: 0.000000px; stroke: rgba(0, 0, 0, 1.000000); " fill="#ff9300" stroke="#000000" stroke-width="0.000000" />
  <path d="M484.000000,107.500000 C519.000000,106.500000,520.000000,148.500000,482.000000,158.500000 C444.000000,168.500000,449.000000,108.500000,484.000000,107.500000 Z " style="fill: rgba(253, 128, 8, 1.000000); stroke-width: 0.000000px; stroke: rgba(0, 0, 0, 1.000000); " fill="#ff9300" stroke="#000000" stroke-width="0.000000" />
</g><g style="">  <path d="M535.000000,169.000000 L653.000000,145.000000 L602.000000,245.000000 L675.000000,214.000000 L666.000000,282.000000 L533.000000,299.000000 L594.000000,189.000000 L530.000000,223.000000 L535.000000,169.000000 Z " style="fill: rgba(128, 0, 255, 1.000000); stroke-width: 0.000000px; stroke: rgba(0, 0, 0, 1.000000); " fill="#9437ff" stroke="#000000" stroke-width="0.000000" />
</g></svg>