<svg width="758px" height="432px" xmlns="http://www.w3.org/2000/svg" xmlns:xlink="http://www.w3.org/1999/xlink">
<g style="">  <path d="M92.000000,405.000000 C92.500000,404.500000,124.000000,368.000000,188.000000,357.000000 C252.000000,346.000000,254.000000,396.000000,254.000000,396.000000 C254.000000,396.000000,279.000000,336.000000,332.000000,332.000000 C385.000000,328.000000,390.000000,378.000000,390.000000,378.000000 C390.000000,378.000000,410.000000,333.000000,450.000000,330.000000 C490.000000,327.000000,500.500000,355.500000,500.000000,356.000000 C499.500000,356.500000,527.000000,314.000000,557.000000,316.000000 C587.000000,318.000000,596.000000,331.000000,596.000000,331.000000 C596.000000,331.000000,625.000000,311.000000,646.000000,309.000000 C667.000000,307.000000,703.500000,312.500000,703.000000,312.000000 C702.500000,311.500000,695.000000,278.000000,700.000000,260.000000 C705.000000,242.000000,744.500000,222.000000,744.000000,222.000000 C743.500000,222.000000,702.000000,208.000000,700.000000,177.000000 C698.000000,146.000000,740.000000,122.500000,740.000000,122.000000 C740.000000,121.500000,718.000000,124.000000,689.000000,110.000000 C660.000000,96.000000,665.000000,70.000000,665.000000,70.000000 C665.000000,70.000000,656.000000,77.000000,594.000000,81.000000 C532.000000,85.000000,553.500000,38.500000,554.000000,38.000000 C554.500000,37.500000,546.000000,58.000000,458.000000,76.000000 C370.000000,94.000000,370.000000,40.000000,370.000000,40.000000 C370.000000,40.000000,355.000000,82.000000,296.000000,94.000000 C237.000000,106.000000,220.000000,60.000000,220.000000,60.000000 C220.000000,60.000000,224.000000,99.000000,168.000000,108.000000 C112.000000,117.000000,92.000000,81.500000,92.000000,81.000000 C92.000000,80.500000,106.000000,118.000000,95.000000,130.000000 C84.000000,142.000000,52.000000,134.000000,52.000000,134.000000 C52.000000,134.000000,76.000000,164.000000,66.000000,192.000000 C56.000000,220.000000,29.000000,222.000000,29.000000,222.000000 C29.000000,222.000000,68.000000,238.000000,66.000000,264.000000 C64.000000,290.000000,27.000000,320.000000,27.000000,320.000000 C27.000000,320.000000,91.000000,302.000000,104.000000,320.000000 C117.000000,338.000000,92.000000,405.000000,92.000000,405.000000 Z " style="fill: rgba(128, 255, 8, 1.000000); " fill="#8df900" stroke="none" />
</g><g style="">  <path d="M163.000000,244.000000 C147.000000,208.000000,213.000000,175.000000,236.000000,203.000000 C251.365410,221.705721,235.000000,250.000000,235.000000,250.000000 L224.000000,234.000000 L188.000000,248.000000 C188.000000,248.000000,194.500000,267.000000,194.000000,266.000000 C194.000000,266.000000,179.000000,280.000000,163.000000,244.000000 Z M232.000000,319.000000 L267.000000,294.000000 L257.000000,277.000000 C257.000000,277.000000,307.317181,201.309570,261.000000,158.000000 C184.000000,86.000000,77.399384,210.641121,115.000000,271.000000 C153.000000,332.000000,218.000000,304.000000,218.000000,304.000000 Z " style="fill: rgba(15, 128, 255, 1.000000); stroke-width: 0.000000px; stroke: rgba(0, 0, 0, 1.000000); " fill="#0096ff" stroke="#000000" stroke-width="0.000000" />
</g><g style="">  <path d="M313.000000,164.000000 C313.000000,164.000000,358.000000,165.000000,358.000000,165.000000 C358.000000,165.000000,337.000000,242.000000,372.000000,242.000000 C407.000000,242.000000,399.000000,170.500000,399.000000,170.000000 C399.000000,169.500000,432.000000,168.000000,432.000000,168.000000 C432.000000,168.000000,442.000000,285.000000,362.000000,290.000000 C282.000000,295.000000,313.000000,164.000000,313.000000,164.000000 Z " style="fill: rgba(253, 128, 8, 1.000000); stroke-width: 0.000000px; stroke: rgba(0, 0, 0, 1.000000); " fill="#ff9300" stroke="#000000" stroke-width="0.000000" />
</g><g style="">  <path d="M462.500000,185.000000 C463.000000,184.500000,504.000000,177.500000,504.500000,177.000000 C505.000000,176.500000,501.000000,281.500000,500.500000,281.000000 C500.000000,280.500000,458.500000,289.000000,458.500000,289.000000 L462.500000,185.000000 Z " style="fill: rgba(253, 128, 8, 1.000000); stroke-width: 0.000000px; stroke: rgba(0, 0, 0, 1.000000); " fill="#ff9300" stroke="#000000" stroke-width="0.000000" />
  <path d="M484.000000,107.500000 C519.000000,106.500000,520.000000,148.500000,482.000000,158.500000 C444.000000,168.500000,449.000000,108.500000,484.000000,107.500000 Z " style="fill: rgba(253, 128, 8, 1.000000); stroke-width: 0.000000px; stroke: rgba(0, 0, 0, 1.000000); " fill="#ff9300" stroke="#000000" stroke-width="0.000000" />
</g><g style="">  <path d="M535.000000,169.000000 L653.000000,145.000000 L602.000000,245.000000 L675.000000,214.000000 L666.000000,282.000000 L533.000000,299.000000 L594.000000,189.000000 L530.000000,223.000000 L535.000000,169.000000 Z " style="fill: rgba(253, 128, 8, 1.000000); stroke-width: 0.000000px; stroke: rgba(0, 0, 0, 1.000000); " fill="#ff9300" stroke="#000000" stroke-width="0.000000" />
</g></svg>