<svg width="758px" height="432px" xmlns="http://www.w3.org/2000/svg" xmlns:xlink="http://www.w3.org/1999/xlink">
<g style="mix-blend-mode: multiply; ">  <path d="M120.025917,266.265302 C97.135855,215.032647,191.557359,168.069380,224.461823,207.917001 C246.444022,234.537660,223.031194,274.804078,223.031194,274.804078 L207.294277,252.034009 L155.791638,271.957819 C155.791638,271.957819,165.090726,298.997276,164.375411,297.574147 C164.375411,297.574147,142.915978,317.497957,120.025917,266.265302 Z M218.739307,373.000000 L268.811317,337.421767 L254.505029,313.228569 C254.505029,313.228569,326.490239,205.511301,260.227544,143.876182 C150.069123,41.410872,-2.436795,218.791304,51.355732,304.689793 C105.719628,391.500681,198.710504,351.653060,198.710504,351.653060 Z " style="fill: rgba(254, 183, 10, 1.000000); stroke-width: 0.000000px; stroke: rgba(254, 204, 102, 1.000000); " fill="#ffc201" stroke="#ffd478" stroke-width="0.000000" />
</g><g style="mix-blend-mode: multiply; ">  <path d="M239.569377,54.860427 C239.569377,54.860427,314.974036,56.584493,314.974036,56.584493 C314.974036,56.584493,279.785195,189.337549,338.433264,189.337549 C397.081332,189.337549,383.676059,66.066854,383.676059,65.204821 C383.676059,64.342788,438.972810,61.756690,438.972810,61.756690 C438.972810,61.756690,455.729401,263.472372,321.676673,272.092701 C187.623944,280.713029,239.569377,54.860427,239.569377,54.860427 Z " style="fill: rgba(224, 63, 213, 1.000000); stroke-width: 0.000000px; stroke: rgba(0, 0, 0, 1.000000); " fill="#e85fdd" stroke="#000000" stroke-width="0.000000" />
</g><g style="mix-blend-mode: multiply; ">  <path d="M385.812919,201.906051 C387.102033,201.016176,492.809449,188.557929,494.098564,187.668055 C495.387679,186.778180,485.074760,373.651879,483.785645,372.762004 C482.496530,371.872129,375.500000,387.000000,375.500000,387.000000 L385.812919,201.906051 Z " style="fill: rgba(33, 227, 26, 1.000000); stroke-width: 0.000000px; stroke: rgba(0, 0, 0, 1.000000); " fill="#0ce320" stroke="#000000" stroke-width="0.000000" />
  <path d="M471.266148,26.042036 C549.260003,23.648389,551.488399,124.181569,466.809356,148.118040 C382.130313,172.054511,393.272293,28.435683,471.266148,26.042036 Z " style="fill: rgba(33, 227, 26, 1.000000); stroke-width: 0.000000px; stroke: rgba(0, 0, 0, 1.000000); " fill="#0ce320" stroke="#000000" stroke-width="0.000000" />
</g><g style="mix-blend-mode: multiply; ">  <path d="M462.482759,107.398268 L686.275862,68.333333 L589.551724,231.103896 L728.000000,180.645022 L710.931034,291.329004 L458.689655,319.000000 L574.379310,139.952381 L453.000000,195.294372 L462.482759,107.398268 Z " style="fill: rgba(21, 171, 253, 1.000000); stroke-width: 0.000000px; stroke: rgba(0, 0, 0, 1.000000); " fill="#00bafd" stroke="#000000" stroke-width="0.000000" />
</g><g style=""></g></svg>